<?xml version="1.0" encoding="utf-8"?>
<!-- Generator: Adobe Illustrator 14.0.0, SVG Export Plug-In . SVG Version: 6.00 Build 43363)  -->
<!DOCTYPE svg PUBLIC "-//W3C//DTD SVG 1.1//EN" "http://www.w3.org/Graphics/SVG/1.1/DTD/svg11.dtd">
<svg version="1.1" id="Layer_1" xmlns="http://www.w3.org/2000/svg" xmlns:xlink="http://www.w3.org/1999/xlink" x="0px" y="0px"
	 width="32px" height="32px" viewBox="0 0 32 32" enable-background="new 0 0 32 32" xml:space="preserve">
<path fill="#FFFFFF" d="M32,2.938C32,9.959,32,16.979,32,24c-0.096,0.305-0.159,0.627-0.294,0.914
	c-0.649,1.379-1.763,2.064-3.274,2.072C25.57,27,22.709,26.99,19.848,26.99c-0.121,0-0.244,0-0.383,0c0,1.059,0,2.082,0,3.137
	c0.368,0,0.719-0.007,1.07,0.002c0.557,0.014,0.945,0.449,0.914,1.004C21.422,31.59,21.125,31.826,20.75,32c-3.166,0-6.334,0-9.5,0
	c-0.586-0.307-0.799-0.678-0.679-1.178c0.11-0.463,0.495-0.695,1.144-0.696c0.275,0,0.55,0,0.821,0c0-1.069,0-2.085,0-3.136
	c-0.14,0-0.261,0-0.384,0c-2.861,0-5.723,0.004-8.584,0c-1.225-0.002-2.248-0.461-2.93-1.487C0.342,25.057,0.208,24.504,0,24
	C0,16.979,0,9.959,0,2.938C0.021,2.893,0.051,2.85,0.061,2.803C0.303,1.639,0.967,0.805,2.04,0.307C2.325,0.174,2.638,0.101,2.938,0
	c8.709,0,17.416,0,26.125,0c0.056,0.021,0.109,0.051,0.166,0.063c1.146,0.256,1.976,0.911,2.465,1.977
	C31.825,2.326,31.898,2.638,32,2.938z M15.996,1.874c-4.104,0-8.208-0.001-12.312,0c-1.179,0-1.811,0.633-1.811,1.815
	c-0.001,6.53-0.001,13.061,0,19.592c0,1.191,0.615,1.814,1.804,1.814c8.217,0.002,16.437,0.002,24.652-0.002
	c0.217,0,0.44-0.014,0.647-0.068c0.74-0.201,1.146-0.813,1.147-1.69c0.001-6.541,0.001-13.082,0-19.623
	c0-1.22-0.622-1.838-1.851-1.838C24.182,1.873,20.089,1.874,15.996,1.874z M14.444,30.105c1.056,0,2.08,0,3.101,0
	c0-1.045,0-2.069,0-3.092c-1.045,0-2.067,0-3.101,0C14.444,28.052,14.444,29.068,14.444,30.105z M16.936,10.989
	c-0.004,3.284-2.671,5.948-5.958,5.946c-3.277,0-5.959-2.677-5.966-5.951C5.004,7.711,7.733,4.988,10.996,5.01
	C14.283,5.034,16.939,7.709,16.936,10.989z M14.914,11.928c-0.117,0-0.229,0-0.342,0c-1.123,0-2.247,0.002-3.371,0
	c-0.813,0-1.163-0.346-1.166-1.152c-0.002-1.135,0-2.269-0.001-3.402c0-0.107-0.013-0.213-0.02-0.327
	C8.236,7.443,6.728,9.19,6.926,11.44c0.168,1.905,1.848,3.521,3.88,3.607C12.791,15.133,14.51,13.773,14.914,11.928z M11.942,10.008
	c1.013,0,1.993,0,2.979,0c-0.377-1.49-1.73-2.824-2.979-2.945C11.942,8.039,11.942,9.014,11.942,10.008z M21.965,19.26
	c0-1.031-0.003-2.063,0.002-3.093c0.002-0.397-0.096-0.745-0.453-0.966c-0.646-0.399-1.432,0.064-1.438,0.863
	c-0.011,1.219-0.002,2.437-0.002,3.654c0,0.111,0,0.222,0,0.33c-1.068,0-2.093,0-3.111,0c-0.011-0.042-0.021-0.062-0.021-0.08
	c-0.002-0.469-0.002-0.938-0.006-1.405c-0.004-0.578-0.398-0.994-0.936-0.994s-0.933,0.416-0.936,0.994
	c-0.004,0.771-0.002,1.541,0,2.313c0,0.721,0.345,1.086,1.063,1.088c3.26,0.005,6.518,0.004,9.775,0
	c0.729-0.002,1.088-0.375,1.088-1.107c0.002-2.403,0.002-4.81-0.002-7.214c0-0.144-0.018-0.292-0.057-0.43
	c-0.109-0.389-0.453-0.642-0.854-0.652c-0.425-0.01-0.798,0.226-0.913,0.615c-0.057,0.186-0.063,0.39-0.064,0.586
	c-0.004,1.979-0.002,3.956-0.002,5.934c0,0.121,0,0.24,0,0.38c-0.156,0-0.26,0-0.363,0c-0.903,0-1.809,0-2.77,0
	C21.965,19.775,21.965,19.518,21.965,19.26z M6.033,20.073c-0.479,0.004-0.832,0.25-0.965,0.649
	C4.849,21.38,5.31,21.957,6.08,21.961c1.593,0.009,3.186,0.005,4.777-0.001c0.163,0,0.336-0.024,0.486-0.083
	c0.404-0.154,0.643-0.602,0.564-1.005c-0.094-0.481-0.457-0.793-0.974-0.799c-0.822-0.011-1.645-0.003-2.467-0.003
	C7.656,20.072,6.844,20.068,6.033,20.073z M23.507,6.898c0.843,0,1.687,0.016,2.528-0.006c0.568-0.014,0.963-0.436,0.951-0.949
	c-0.012-0.516-0.422-0.926-0.98-0.93c-1.654-0.01-3.309-0.009-4.963,0c-0.439,0.002-0.781,0.262-0.91,0.638
	c-0.221,0.644,0.227,1.233,0.971,1.247c0.801,0.015,1.603,0.004,2.403,0.004C23.507,6.9,23.507,6.899,23.507,6.898z"/>
</svg>
