<?xml version="1.0" encoding="utf-8"?>
<!-- Generator: Adobe Illustrator 14.0.0, SVG Export Plug-In . SVG Version: 6.00 Build 43363)  -->
<!DOCTYPE svg PUBLIC "-//W3C//DTD SVG 1.1//EN" "http://www.w3.org/Graphics/SVG/1.1/DTD/svg11.dtd">
<svg version="1.1" id="Layer_1" xmlns="http://www.w3.org/2000/svg" xmlns:xlink="http://www.w3.org/1999/xlink" x="0px" y="0px"
	 width="32px" height="32px" viewBox="0 0 32 32" enable-background="new 0 0 32 32" xml:space="preserve">
<path fill="#FFFFFF" d="M10.938,0c0.511,0.164,1.048,0.272,1.526,0.504c1.268,0.613,2.073,1.641,2.443,2.997
	c0.057,0.21,0.14,0.255,0.336,0.254c1.489-0.007,2.979-0.005,4.467-0.003c0.671,0,1.038,0.369,1.038,1.043c0,4.342,0,8.685,0,13.025
	c0,0.69-0.365,1.053-1.061,1.053c-6.166,0.001-12.33-0.004-18.495,0.01c-0.566,0-0.962-0.178-1.194-0.695c0-4.583,0-9.166,0-13.75
	C0.23,3.919,0.625,3.733,1.193,3.743C2.631,3.77,4.068,3.748,5.505,3.755C5.7,3.756,5.785,3.713,5.842,3.502
	C6.217,2.12,7.049,1.092,8.34,0.475C8.802,0.254,9.32,0.154,9.813,0C10.188,0,10.563,0,10.938,0z M1.896,5.638
	c0,1.903,0,3.781,0,5.65c1.901,0,3.779,0,5.667,0c0-0.307-0.002-0.587,0-0.868C7.569,9.828,7.95,9.441,8.54,9.439
	c1.218-0.003,2.437-0.002,3.655,0c0.609,0.002,0.987,0.385,0.991,0.996c0.002,0.287,0,0.574,0,0.854c1.922,0,3.8,0,5.673,0
	c0-1.896,0-3.768,0-5.651C13.201,5.638,7.56,5.638,1.896,5.638z M18.861,13.201c-0.063-0.006-0.104-0.014-0.144-0.014
	c-1.823-0.001-3.645,0.004-5.468-0.008c-0.209-0.001-0.251,0.111-0.324,0.255c-0.527,1.034-1.364,1.614-2.536,1.62
	c-1.186,0.007-2.037-0.573-2.563-1.622c-0.094-0.188-0.184-0.253-0.391-0.251c-1.76,0.008-3.52,0.004-5.28,0.006
	c-0.089,0-0.179,0.012-0.258,0.017c0,1.28,0,2.533,0,3.78c5.666,0,11.307,0,16.961,0C18.861,15.723,18.861,14.477,18.861,13.201z
	 M12.985,3.744c-0.309-1.107-1.548-1.939-2.748-1.865C9.083,1.951,7.913,2.836,7.783,3.744C9.509,3.744,11.235,3.744,12.985,3.744z
	 M11.313,11.328c-0.637,0-1.243,0-1.876,0c0,0.313-0.009,0.611,0.002,0.91c0.02,0.525,0.428,0.939,0.923,0.948
	c0.503,0.01,0.929-0.412,0.949-0.954C11.322,11.943,11.313,11.652,11.313,11.328z M15.813,32c-0.39-0.197-0.691-0.458-0.687-0.943
	c0.004-0.508,0.393-0.914,0.902-0.928c0.311-0.01,0.623-0.002,0.973-0.002c0-0.131,0-0.242,0-0.352c0-1.418,0-2.834,0-4.25
	c0.001-0.65,0.374-1.023,1.026-1.023c0.895-0.002,1.789-0.001,2.724-0.001c0-0.171,0-0.323,0-0.476c0-0.771-0.003-1.541,0.001-2.313
	c0.003-0.567,0.393-0.958,0.962-0.961c0.915-0.004,1.83-0.001,2.786-0.001c0-0.13,0-0.239,0-0.352c0-2.051,0-4.104,0-6.154
	c0-0.694,0.361-1.056,1.057-1.056c1.176-0.002,2.354-0.002,3.53,0c0.669,0,1.035,0.369,1.035,1.046c0,5.155,0,10.312,0,15.468
	c0,0.125,0,0.249,0,0.412c0.69,0.059,1.517-0.21,1.876,0.696c0,0.166,0,0.334,0,0.5c-0.145,0.314-0.37,0.547-0.688,0.688
	C26.146,32,20.979,32,15.813,32z M28.229,30.111c0-5.027,0-10.029,0-15.025c-0.629,0-1.236,0-1.838,0c0,5.021,0,10.016,0,15.025
	C27.007,30.111,27.607,30.111,28.229,30.111z M24.479,30.111c0-2.508,0-4.988,0-7.463c-0.629,0-1.237,0-1.838,0
	c0,2.5,0,4.976,0,7.463C23.257,30.111,23.857,30.111,24.479,30.111z M18.887,30.102c0.641,0,1.248,0,1.848,0
	c0-1.252,0-2.477,0-3.707c-0.625,0-1.232,0-1.848,0C18.887,27.639,18.887,28.863,18.887,30.102z M12.563,32
	c0.079-0.045,0.16-0.09,0.238-0.137c0.348-0.211,0.526-0.637,0.429-1.021c-0.104-0.41-0.456-0.712-0.877-0.713
	c-2.568-0.004-5.136-0.006-7.704,0.001c-0.507,0.001-0.893,0.423-0.897,0.929C3.747,31.543,4.048,31.803,4.438,32
	C7.146,32,9.854,32,12.563,32z M0,23.813c0.036,0.062,0.072,0.121,0.106,0.185c0.239,0.433,0.717,0.614,1.165,0.44
	c0.437-0.17,0.688-0.629,0.588-1.076c-0.104-0.463-0.532-0.772-1.014-0.731C0.411,22.666,0.179,22.957,0,23.313
	C0,23.479,0,23.646,0,23.813z M0,27.563c0.036,0.062,0.072,0.121,0.106,0.185c0.239,0.433,0.717,0.614,1.165,0.44
	c0.437-0.17,0.688-0.629,0.588-1.076c-0.104-0.463-0.532-0.772-1.014-0.731C0.411,26.416,0.179,26.707,0,27.063
	C0,27.229,0,27.396,0,27.563z M0,31.313C0.141,31.631,0.373,31.855,0.688,32c0.167,0,0.333,0,0.5,0
	c0.061-0.035,0.122-0.072,0.183-0.107c0.415-0.228,0.602-0.68,0.459-1.108c-0.147-0.445-0.549-0.707-1.012-0.652
	C0.399,30.18,0.173,30.466,0,30.813C0,30.979,0,31.146,0,31.313z M12.212,24.498c0.63,0,1.042-0.379,1.037-0.949
	c-0.006-0.553-0.417-0.922-1.033-0.922c-2.476-0.002-4.952-0.002-7.428,0c-0.629,0-1.042,0.381-1.036,0.949
	c0.006,0.552,0.418,0.922,1.032,0.922c1.228,0.002,2.455,0.001,3.683,0.001C9.715,24.499,10.963,24.5,12.212,24.498z M12.217,28.248
	c0.615,0,1.026-0.369,1.032-0.923c0.006-0.569-0.407-0.948-1.038-0.948c-2.476-0.002-4.952-0.002-7.428,0
	c-0.614,0-1.026,0.371-1.031,0.922c-0.005,0.569,0.408,0.949,1.037,0.949c1.238,0.002,2.476,0.001,3.714,0.001
	C9.741,28.249,10.979,28.25,12.217,28.248z"/>
</svg>
