<svg xmlns="http://www.w3.org/2000/svg" width="32" height="23.042" viewBox="0 0 32 23.042">
  <g id="devopslabs-monogram" transform="translate(0 0)">
    <path id="Path_15" data-name="Path 15" d="M30.469,8.1c.152.173.276.314.4.456.17.2.339.394.51.591l.671.772c.209.241.419.479.627.719.25.288.5.578.75.866.216.249.435.5.652.744s.42.486.63.728c.169.194.339.387.507.582.2.228.406.446.58.69a1.078,1.078,0,0,1-.072,1.363c-.347.4-.7.8-1.047,1.2s-.716.833-1.076,1.248c-.294.338-.593.672-.887,1.011-.279.321-.553.645-.832.966-.257.3-.52.59-.778.887s-.486.566-.73.848c-.21.242-.424.482-.634.724-.246.284-.491.569-.737.853-.173.2-.347.4-.52.594-.217.249-.431.5-.647.747s-.435.5-.652.743c-.124.142-.249.281-.371.425a1.448,1.448,0,0,1-.754.455,2.1,2.1,0,0,1-.547.085,1.784,1.784,0,0,1-1.418-.572c-.279-.32-.553-.645-.831-.966-.142-.163-.288-.324-.438-.493l.334-.386.653-.754c.2-.227.395-.454.591-.682.051-.059.081-.035.122.013.2.234.394.47.6.7a.518.518,0,0,0,.737-.047c.217-.259.443-.511.664-.767s.418-.486.628-.729c.169-.195.339-.387.508-.581.254-.293.506-.586.761-.878.212-.245.427-.487.64-.731s.431-.5.647-.747.427-.486.64-.731.419-.486.629-.729.423-.483.634-.725l.653-.754c.16-.184.32-.366.478-.551a.609.609,0,0,0-.019-.848c-.276-.308-.544-.623-.816-.935-.253-.289-.508-.577-.76-.868-.326-.375-.65-.753-.976-1.128-.21-.242-.423-.482-.634-.724s-.426-.5-.641-.741a.071.071,0,0,1,0-.112q.616-.7,1.228-1.4.137-.157.269-.318c.026-.031.046-.067.074-.109" transform="translate(-9.468 -3.361)" fill="#a6ce38"/>
    <path id="Path_16" data-name="Path 16" d="M20.89,3.9c-.077-.086-.149-.167-.221-.25-.139-.159-.279-.317-.415-.478a.537.537,0,0,0-.78.036c-.233.3-.5.582-.755.872s-.5.578-.75.866c-.211.242-.423.483-.634.725l-.755.872-.615.707-.641.741L14.7,8.7q-.4.456-.791.91c-.253.29-.507.578-.76.868-.19.218-.383.433-.566.657a.575.575,0,0,0,.019.785c.236.281.482.554.723.832s.5.578.748.866c.213.245.427.487.64.731s.432.5.648.748l.634.724c.156.178.31.359.468.536.041.046.012.075-.012.1-.124.145-.251.287-.376.432q-.377.436-.754.872c-.128.149-.26.295-.388.444-.047.056-.084.056-.131,0q-.361-.422-.724-.841c-.21-.243-.423-.483-.634-.725s-.422-.49-.635-.735c-.174-.2-.351-.4-.525-.6-.214-.247-.427-.5-.641-.741s-.431-.49-.645-.737-.415-.482-.624-.723c-.174-.2-.351-.4-.525-.6a1.774,1.774,0,0,1-.461-.715,1.078,1.078,0,0,1,.228-.992c.3-.364.621-.717.932-1.075.366-.421.729-.844,1.1-1.266s.731-.836,1.1-1.255c.4-.461.8-.923,1.2-1.384.26-.3.525-.594.785-.893.318-.367.633-.737.952-1.1.257-.3.52-.59.778-.887s.5-.578.749-.866c.215-.246.432-.491.647-.737q.36-.412.718-.825a1.4,1.4,0,0,1,.558-.372A1.972,1.972,0,0,1,19.9,0a1.817,1.817,0,0,1,1.2.42,3.827,3.827,0,0,1,.323.351c.185.211.368.424.552.635l.49.562a.09.09,0,0,1,0,.141c-.349.4-.7.8-1.043,1.2-.156.179-.311.358-.467.537a.655.655,0,0,1-.066.059" transform="translate(-3.879 0)" fill="#a6ce38"/>
    <path id="Path_17" data-name="Path 17" d="M30.985,21.01l1.631-1.875c.068.076.133.146.2.218.163.184.32.373.489.551a.486.486,0,0,0,.662,0c.194-.207.377-.423.564-.637.173-.2.344-.4.517-.6l.767-.884c.173-.2.348-.4.52-.594l.642-.741.494-.57.659-.76c.171-.2.343-.391.514-.588.257-.3.515-.595.773-.891.211-.242.427-.48.633-.726a4,4,0,0,0,.6-.772,1.43,1.43,0,0,0-.245-1.613c-.252-.287-.5-.578-.749-.866-.205-.236-.411-.47-.616-.706l-.773-.891c-.209-.24-.419-.479-.628-.719-.256-.294-.511-.59-.767-.885-.213-.244-.428-.487-.64-.731-.25-.288-.5-.577-.749-.865l-.61-.7q-.393-.451-.785-.9a.561.561,0,0,0-.411-.245.491.491,0,0,0-.413.156c-.217.252-.439.5-.657.751-.245.281-.487.565-.731.847-.2.234-.407.467-.609.7q-.384.442-.768.885c-.21.242-.422.483-.634.725-.066.077-.132.153-.2.231-.04.049-.073.053-.117,0-.3-.344-.6-.686-.892-1.029-.225-.259-.449-.52-.679-.786.08-.094.154-.184.232-.273l1.1-1.255L30.6,2.487q.464-.533.929-1.067.363-.42.724-.842a1.621,1.621,0,0,1,.986-.54A2.089,2.089,0,0,1,34.57.223a1.877,1.877,0,0,1,.558.489c.211.245.424.49.636.734l.647.748.628.719.661.76c.208.24.418.479.627.719l.642.741q.312.36.627.719l.642.741c.169.194.338.387.507.582l.767.885c.211.242.425.482.634.725.3.351.617.692.9,1.059a2.735,2.735,0,0,1,.548,1.388,2.673,2.673,0,0,1-.41,1.757,7.97,7.97,0,0,1-.608.778c-.244.293-.5.579-.748.867-.172.2-.346.4-.519.595-.212.245-.422.491-.635.735-.181.207-.364.411-.545.619-.247.284-.491.569-.737.853-.206.238-.414.475-.621.713l-.648.747-.627.719-.66.759-.5.576-.648.747c-.169.194-.336.39-.508.582a3.876,3.876,0,0,1-.365.382,1.693,1.693,0,0,1-.863.358,2.084,2.084,0,0,1-1.2-.17,1.345,1.345,0,0,1-.485-.373c-.165-.2-.338-.388-.507-.582l-.641-.741c-.04-.046-.082-.089-.129-.141" transform="translate(-11.605 -0.001)" fill="#fff"/>
    <path id="Path_18" data-name="Path 18" d="M12.62,2.036l-.351.406-.774.891-.468.536c-.032.038-.054.028-.083-.005-.2-.233-.4-.465-.6-.7a.519.519,0,0,0-.713-.016c-.187.2-.361.407-.539.612-.211.242-.42.485-.631.727q-.335.387-.672.773c-.211.242-.424.483-.634.725s-.423.49-.635.735-.411.47-.616.706q-.327.377-.654.754l-.508.582c-.22.253-.439.507-.659.76-.174.2-.355.4-.525.6a4.416,4.416,0,0,0-.575.727,1.412,1.412,0,0,0-.162.535,1.52,1.52,0,0,0,.446,1.2c.255.284.5.576.751.865.2.234.406.466.609.7.216.249.43.5.647.748.171.2.343.391.514.587.258.3.515.6.773.891.211.242.424.483.634.725s.422.491.634.735.432.49.647.737.411.477.617.716c.171.2.343.391.513.588a.518.518,0,0,0,.759-.029c.279-.34.578-.663.866-.995.245-.282.486-.566.73-.848.218-.251.44-.5.658-.75.278-.321.554-.644.832-.966.177-.2.359-.407.547-.619.115.13.225.255.335.38l.534.616.641.741.016.02c.108.128.1.125-.006.251-.267.3-.531.61-.8.915-.217.249-.436.5-.653.743s-.418.487-.628.729c-.175.2-.352.4-.526.6-.212.244-.424.49-.635.735-.169.194-.339.387-.507.581-.152.175-.3.351-.456.524a1.591,1.591,0,0,1-.875.483,2.106,2.106,0,0,1-1.17-.065,1.59,1.59,0,0,1-.728-.513c-.174-.212-.359-.415-.538-.623-.208-.241-.415-.482-.623-.722l-.507-.582c-.262-.3-.523-.6-.785-.9-.213-.245-.428-.487-.64-.731-.25-.288-.5-.578-.749-.865-.17-.2-.343-.391-.514-.588q-.378-.435-.755-.872c-.171-.2-.343-.391-.514-.588-.212-.244-.423-.49-.635-.734-.169-.194-.339-.387-.507-.582q-.33-.379-.659-.76c-.176-.2-.359-.4-.521-.615A2.865,2.865,0,0,1,.04,11.984a2.722,2.722,0,0,1,.308-1.795,4.377,4.377,0,0,1,.584-.795c.258-.293.511-.59.768-.884l.73-.838c.256-.294.511-.59.767-.885.212-.244.428-.486.64-.731q.427-.492.851-.985c.2-.236.411-.47.616-.707.254-.293.507-.586.761-.878.212-.244.427-.487.641-.731s.439-.507.66-.76l.621-.713L8.634.535A1.461,1.461,0,0,1,9.17.16,1.967,1.967,0,0,1,10,0a1.785,1.785,0,0,1,1.107.348,3.583,3.583,0,0,1,.414.418c.177.195.346.4.518.6l.582.673" transform="translate(0 0)" fill="#fff"/>
    <path id="Path_19" data-name="Path 19" d="M24.477,8.129l.321.365.545.629L26.1,10c.211.242.423.483.634.725s.423.49.635.735c.173.2.347.4.52.594.215.246.428.494.643.74.176.2.355.4.531.607.248.286.494.573.743.86.089.1.178.205.269.307a.426.426,0,0,1,0,.647c-.339.387-.674.778-1.012,1.166-.253.29-.509.578-.761.867s-.5.577-.748.866c-.063.074-.076.073-.138,0-.173-.2-.349-.4-.523-.6l-.774-.891-.268-.307L26.128,16c.275-.316.551-.631.825-.949a.222.222,0,0,0,0-.328c-.307-.354-.615-.707-.922-1.061-.277-.321-.553-.645-.832-.967-.221-.255-.448-.506-.671-.761-.286-.329-.571-.661-.856-.991-.211-.242-.424-.483-.634-.724-.025-.029-.047-.059-.072-.087-.118-.138-.117-.137,0-.272L24.18,8.472l.3-.343" transform="translate(-9.489 -3.372)" fill="#fff"/>
    <path id="Path_20" data-name="Path 20" d="M21.977,14.022c.338.392.651.756.966,1.118q.312.36.63.716c.041.046.036.071,0,.115q-.524.6-1.043,1.2a.247.247,0,0,0,.013.352c.288.332.58.661.868.993.314.363.625.729.94,1.091.257.3.52.59.778.887s.5.578.748.867c.212.244.426.488.641.73.114.127.121.129.013.255-.176.207-.358.408-.537.614l-.624.721c-.119.138-.239.274-.367.42-.05-.055-.1-.107-.145-.16q-.4-.457-.8-.916c-.25-.288-.5-.578-.748-.867-.212-.244-.428-.486-.64-.73-.28-.324-.558-.65-.838-.973-.219-.253-.444-.5-.665-.756-.252-.29-.5-.581-.755-.871-.2-.236-.41-.471-.616-.707-.153-.177-.31-.351-.458-.533a.412.412,0,0,1,.047-.56q.512-.59,1.023-1.179.5-.569.994-1.136.259-.3.514-.6a.754.754,0,0,0,.059-.09" transform="translate(-7.985 -5.817)" fill="#fff"/>
  </g>
</svg>
