<svg xmlns="http://www.w3.org/2000/svg" width="161.719" height="120.765" viewBox="0 0 161.719 120.765">
  <g id="devopslabs-logo" transform="translate(0 0)">
    <path id="Path_1" data-name="Path 1" d="M92.548,14.372c.489.558.888,1.012,1.285,1.469.549.633,1.093,1.27,1.642,1.9q1.081,1.245,2.165,2.488c.673.773,1.35,1.543,2.02,2.317.807.929,1.606,1.863,2.414,2.79.7.8,1.4,1.6,2.1,2.4.679.779,1.352,1.564,2.029,2.346.543.626,1.094,1.247,1.633,1.876.63.734,1.305,1.439,1.869,2.222a3.476,3.476,0,0,1-.234,4.391c-1.118,1.3-2.25,2.586-3.372,3.881-1.158,1.338-2.308,2.684-3.469,4.019-.947,1.089-1.909,2.167-2.855,3.256-.9,1.034-1.782,2.079-2.68,3.113-.83.955-1.675,1.9-2.506,2.856-.789.907-1.567,1.823-2.353,2.73-.678.782-1.364,1.555-2.043,2.335-.794.914-1.58,1.834-2.374,2.749-.556.64-1.118,1.274-1.673,1.913-.7.8-1.388,1.608-2.085,2.408s-1.4,1.6-2.1,2.393c-.4.456-.8.907-1.195,1.369a4.663,4.663,0,0,1-2.427,1.465,6.78,6.78,0,0,1-1.76.274,5.75,5.75,0,0,1-4.571-1.844c-.9-1.032-1.782-2.078-2.679-3.113-.455-.527-.925-1.043-1.41-1.589l1.076-1.243q1.051-1.215,2.1-2.428c.634-.731,1.273-1.46,1.9-2.195.165-.191.26-.113.393.044.638.752,1.27,1.511,1.937,2.239a1.668,1.668,0,0,0,2.371-.153c.7-.835,1.426-1.647,2.139-2.472.677-.781,1.348-1.567,2.026-2.348.543-.627,1.094-1.247,1.636-1.873.819-.943,1.632-1.889,2.452-2.829.684-.788,1.376-1.569,2.062-2.356S89.4,49.566,90.1,48.765s1.376-1.568,2.061-2.355,1.349-1.567,2.027-2.347,1.364-1.556,2.043-2.336q1.054-1.212,2.1-2.428c.513-.592,1.029-1.18,1.54-1.774a1.963,1.963,0,0,0-.063-2.732c-.888-.992-1.753-2.007-2.629-3.009-.815-.933-1.637-1.861-2.449-2.8-1.051-1.208-2.094-2.425-3.144-3.635-.679-.781-1.367-1.554-2.044-2.335s-1.373-1.6-2.065-2.389a.228.228,0,0,1,0-.358q1.983-2.257,3.958-4.522c.293-.337.581-.679.866-1.023.084-.1.148-.217.239-.353" transform="translate(4.264 0.902)" fill="#a6ce38"/>
    <path id="Path_2" data-name="Path 2" d="M81.194,12.571c-.246-.277-.481-.539-.713-.8-.447-.512-.9-1.02-1.336-1.541a1.73,1.73,0,0,0-2.513.115c-.754.981-1.619,1.875-2.433,2.81s-1.608,1.86-2.415,2.789c-.678.781-1.362,1.557-2.041,2.337q-1.22,1.4-2.435,2.809c-.66.76-1.322,1.517-1.981,2.278q-1.035,1.192-2.066,2.388c-.666.766-1.337,1.529-2,2.3-.85.976-1.7,1.956-2.547,2.931q-1.223,1.4-2.45,2.8c-.611.7-1.234,1.4-1.825,2.116a1.854,1.854,0,0,0,.064,2.529c.762.9,1.554,1.784,2.329,2.678.806.929,1.606,1.862,2.412,2.79.683.788,1.376,1.569,2.061,2.355s1.389,1.607,2.085,2.408q1.019,1.169,2.043,2.335c.5.575,1,1.156,1.507,1.726.132.148.04.241-.039.335-.4.468-.808.928-1.211,1.392q-1.216,1.4-2.431,2.811c-.416.478-.839.95-1.25,1.432-.153.179-.27.177-.423,0q-1.161-1.361-2.332-2.711c-.677-.781-1.364-1.555-2.042-2.336s-1.362-1.579-2.046-2.367c-.562-.646-1.133-1.287-1.7-1.934-.69-.794-1.374-1.593-2.065-2.387s-1.391-1.581-2.081-2.375c-.673-.774-1.336-1.554-2.009-2.327-.561-.647-1.13-1.288-1.694-1.934A5.7,5.7,0,0,1,44.137,38a3.473,3.473,0,0,1,.735-3.2c.977-1.174,2-2.31,3-3.464,1.178-1.359,2.35-2.722,3.529-4.079s2.356-2.692,3.528-4.043c1.289-1.484,2.569-2.976,3.858-4.459.837-.963,1.69-1.914,2.527-2.877,1.027-1.181,2.041-2.373,3.067-3.554.831-.957,1.674-1.9,2.506-2.858C67.7,8.548,68.5,7.613,69.3,6.685c.691-.795,1.388-1.584,2.082-2.375Q72.543,2.983,73.7,1.654a4.525,4.525,0,0,1,1.8-1.2A6.359,6.359,0,0,1,78.009,0a5.86,5.86,0,0,1,3.877,1.351,11.934,11.934,0,0,1,1.04,1.131c.6.678,1.185,1.364,1.779,2.046q.788.907,1.579,1.812a.293.293,0,0,1-.013.456c-1.127,1.279-2.244,2.568-3.363,3.854q-.752.866-1.5,1.73a2.7,2.7,0,0,1-.211.189" transform="translate(2.763 0)" fill="#a6ce38"/>
    <path id="Path_3" data-name="Path 3" d="M94.81,99.881a7.551,7.551,0,0,0-3.243-2.391L89,96.382a3.54,3.54,0,0,1-1.5-1.028,2.32,2.32,0,0,1-.4-1.384,1.934,1.934,0,0,1,.535-1.462,1.989,1.989,0,0,1,1.442-.514,1.9,1.9,0,0,1,1.5.632,2.747,2.747,0,0,1,.554,1.858v.238h4.428v-.4A5.849,5.849,0,0,0,93.782,89.9a7.249,7.249,0,0,0-9.33,0,5.66,5.66,0,0,0-1.779,4.269,6.2,6.2,0,0,0,.91,3.478,7.236,7.236,0,0,0,3.321,2.411l2.371,1.028a4.134,4.134,0,0,1,1.562,1.087,2.236,2.236,0,0,1,.494,1.443,2.387,2.387,0,0,1-.534,1.68,2.03,2.03,0,0,1-1.562.573,2.13,2.13,0,0,1-1.661-.653,2.633,2.633,0,0,1-.592-1.838v-.238H82.555v.238a6.085,6.085,0,0,0,1.779,4.645,7.721,7.721,0,0,0,9.665-.04,5.881,5.881,0,0,0,1.8-4.448,6.221,6.221,0,0,0-.988-3.656m-19.8,2.313a5.146,5.146,0,0,1-.494,2.609,1.633,1.633,0,0,1-1.483.791q-2.017,0-2.016-3.4V95.711a5,5,0,0,1,.514-2.59,1.668,1.668,0,0,1,1.5-.81,1.624,1.624,0,0,1,1.483.81,5.16,5.16,0,0,1,.494,2.59v6.483ZM74.61,88.2a4.222,4.222,0,0,0-3.677,1.977v-1.66H66.505v27.119h4.587v-7.512a4.305,4.305,0,0,0,3.439,1.581,4.605,4.605,0,0,0,3.656-1.621q1.4-1.621,1.4-5.14V94.959q0-3.518-1.344-5.14A4.478,4.478,0,0,0,74.61,88.2M58.245,101.323a5.093,5.093,0,0,1-.732,2.946,2.42,2.42,0,0,1-2.115,1.047q-2.925,0-2.925-3.993V90.373a5.96,5.96,0,0,1,.691-3.2A2.465,2.465,0,0,1,55.4,86.1a2.381,2.381,0,0,1,2.135,1.087,5.841,5.841,0,0,1,.712,3.182v10.95ZM55.516,81.716a8.135,8.135,0,0,0-5.73,2,7.573,7.573,0,0,0-2.174,5.87v12.294a7.764,7.764,0,0,0,2.055,5.831,7.661,7.661,0,0,0,5.574,2,8.053,8.053,0,0,0,5.672-2.016,7.5,7.5,0,0,0,2.195-5.811V89.583a7.775,7.775,0,0,0-2.076-5.87,7.618,7.618,0,0,0-5.516-2" transform="translate(2.989 5.13)" fill="#a6ce38"/>
    <path id="Exclusion_1" data-name="Exclusion 1" d="M1225.136-49.771a7.021,7.021,0,0,1-2.256-.384,5.161,5.161,0,0,1-2.345-1.653c-.372-.451-.764-.9-1.143-1.33l-.021-.024c-.187-.214-.381-.435-.57-.654l-.827-.958q-.591-.685-1.182-1.368-.432-.5-.867-.994l-.035-.04-.733-.84-.885-1.019-.141-.163-.009-.01q-.747-.86-1.495-1.719-.43-.493-.862-.984l-.04-.046c-.38-.432-.772-.879-1.16-1.325-.461-.53-.922-1.064-1.367-1.581q-.522-.6-1.045-1.209-.382-.439-.766-.875c-.276-.314-.588-.67-.891-1.019q-.6-.7-1.209-1.4l-.049-.056q-.587-.679-1.174-1.356-.384-.442-.77-.881c-.258-.294-.58-.661-.885-1.013q-.541-.623-1.08-1.248l-.05-.058q-.458-.531-.917-1.061c-.315-.364-.634-.728-.942-1.08l-.694-.795-.264-.3c-.579-.666-1.234-1.421-1.859-2.145-.162-.189-.334-.384-.485-.557-.4-.46-.82-.933-1.194-1.426a9.229,9.229,0,0,1-1.795-4.055,8.806,8.806,0,0,1,.991-5.781A13.73,13.73,0,0,1,1196-93.739c.529-.6,1.065-1.223,1.538-1.771l.056-.065q.439-.508.879-1.015.536-.617,1.074-1.233l.1-.114.009-.011q.584-.669,1.167-1.339l.883-1.02.042-.048.018-.021c.5-.578,1.017-1.176,1.528-1.762.337-.387.687-.786,1-1.138.33-.376.7-.8,1.065-1.217q.766-.882,1.528-1.767l1.214-1.4q.553-.638,1.108-1.274l.874-1q.493-.567.984-1.136l.036-.041c.469-.543.955-1.1,1.434-1.653.364-.419.737-.843,1.1-1.253l.005-.006q.481-.548.961-1.1c.429-.491.874-1,1.267-1.458l.86-.991.758-.869.1-.114.113-.13,1.03-1.183c.674-.775,1.377-1.585,2.089-2.408a4.669,4.669,0,0,1,1.728-1.211,6.281,6.281,0,0,1,2.515-.51l.156,0a5.722,5.722,0,0,1,3.564,1.119,9.734,9.734,0,0,1,1.153,1.147l.027.03.154.17c.413.456.82.93,1.213,1.389l.01.011.446.52,1.08,1.248.065.075.732.845-.565.653-.015.017-.55.636-.034.039q-1.229,1.417-2.458,2.832-.334.386-.671.77l-.038.044-.062.071q-.367.421-.734.843a.181.181,0,0,1-.127.077c-.044,0-.086-.028-.143-.095-.621-.725-1.217-1.417-1.932-2.245a1.568,1.568,0,0,0-1.186-.483,1.521,1.521,0,0,0-1.111.43c-.436.461-.856.95-1.262,1.424l-.005.006q-.233.272-.468.542c-.432.5-.869,1-1.291,1.488l-.016.018-.726.838c-.817.942-1.525,1.757-2.164,2.489q-.506.581-1.014,1.16t-1.028,1.176q-.537.619-1.072,1.241l-.045.052q-.463.538-.928,1.076-.609.7-1.222,1.4l-.027.031-.736.843q-.572.657-1.143,1.318l-.1.121-.858.989-.608.7-.121.138-.908,1.04q-.48.552-.959,1.106l-.047.054q-.558.645-1.118,1.289c-.2.225-.4.452-.593.672l-.012.014c-.362.408-.734.826-1.087,1.249-.174.209-.359.415-.537.614a8.961,8.961,0,0,0-1.312,1.728,4.5,4.5,0,0,0-.523,1.725,4.837,4.837,0,0,0,1.439,3.851c.548.609,1.089,1.24,1.612,1.852l.008.01c.26.3.529.618.8.925q.478.55.957,1.1l.01.011.074.085q.462.53.922,1.061t.943,1.091l.047.054.012.014q.54.626,1.082,1.251c.275.316.55.629.855.976l.012.014q.4.45.791.9.578.665,1.154,1.331l.034.039c.426.492.866,1,1.3,1.5.33.379.663.759.986,1.127l.007.008c.345.393.7.8,1.049,1.2s.689.8,1.025,1.187l.005.006.016.019c.327.38.665.773,1,1.157.318.365.643.734.958,1.092l.021.024c.362.411.735.835,1.1,1.258.351.4.706.816,1.048,1.215l.011.013c.311.362.619.721.929,1.078q.4.457.794.91c.252.288.565.646.86.986a1.505,1.505,0,0,0,1.15.487,1.683,1.683,0,0,0,1.3-.582c.6-.728,1.233-1.445,1.847-2.138.309-.348.628-.708.941-1.068.387-.446.782-.906,1.13-1.312l.031-.036c.389-.454.792-.923,1.192-1.382.358-.412.725-.828,1.079-1.229.341-.387.694-.786,1.041-1.185.471-.543.945-1.094,1.4-1.627.418-.487.85-.99,1.279-1.484.382-.44.761-.868,1.163-1.32l.023-.026.575-.649.094.106.018.02c.334.378.65.735.967,1.1.453.52.911,1.048,1.356,1.562l.086.1.28.323,1.029,1.186.152.175.888,1.024c.01.012.02.024.029.036l.023.029c.339.4.339.4,0,.78l-.026.029c-.535.607-1.074,1.228-1.595,1.829l-.009.01-.013.015q-.476.549-.953,1.1c-.34.39-.688.785-1.025,1.167l-.032.036c-.323.366-.689.781-1.046,1.191s-.714.826-1.032,1.2l-.023.026c-.318.369-.646.751-.971,1.125-.308.354-.624.713-.9,1.03q-.4.45-.792.9-.582.67-1.16,1.341l-.885,1.025q-.46.53-.921,1.056l-.079.09-.635.728-.5.573-.009.01c-.314.363-.639.739-.962,1.1a5.072,5.072,0,0,1-2.819,1.555A6.759,6.759,0,0,1,1225.136-49.771Zm38.8,0a6.774,6.774,0,0,1-2.823-.627,4.362,4.362,0,0,1-1.561-1.2c-.344-.412-.706-.822-1.055-1.218-.195-.221-.387-.439-.577-.658q-.505-.581-1.008-1.163l-.042-.049-1.018-1.175c-.086-.1-.175-.194-.269-.3l-.006-.007-.025-.027-.117-.127,2.146-2.467,3.109-3.573.173.191c.151.167.308.34.46.511s.331.378.491.563l0,0h0c.349.4.709.818,1.08,1.21a1.465,1.465,0,0,0,1.068.419,1.451,1.451,0,0,0,1.064-.42c.478-.511.944-1.048,1.395-1.567l.421-.484c.306-.35.615-.708.914-1.055l.035-.041.012-.014q.351-.407.7-.813c.939-1.085,1.724-1.991,2.471-2.849q.415-.477.833-.952t.842-.963c.56-.643,1.128-1.3,1.676-1.933l.039-.045.353-.407.549-.632,1.046-1.2.5-.579q.81-.935,1.622-1.87.388-.444.777-.887.441-.5.88-1.005.673-.772,1.344-1.547l1.148-1.322c.234-.269.474-.541.707-.8l.008-.009,0,0c.438-.495.89-1.007,1.32-1.522.175-.209.361-.416.541-.616l.008-.008a8.323,8.323,0,0,0,1.384-1.862,4.623,4.623,0,0,0-.788-5.2c-.5-.57-1-1.154-1.49-1.719l-.007-.009q-.458-.531-.916-1.061-.558-.643-1.119-1.284l-.083-.1-.781-.9-1-1.151-.081-.093q-.706-.814-1.413-1.626-.5-.578-1.006-1.154t-1.014-1.163q-.637-.732-1.271-1.466l-.047-.054q-.577-.666-1.154-1.331-.444-.51-.891-1.017l-.023-.026c-.377-.429-.767-.873-1.147-1.312-.486-.559-.979-1.13-1.414-1.633l-.074-.086-.926-1.07c-.416-.481-.844-.971-1.222-1.4l-.109-.125-.633-.726-.018-.02-.01-.011c-.821-.943-1.669-1.919-2.5-2.882a1.807,1.807,0,0,0-1.324-.79h-.071a1.541,1.541,0,0,0-1.26.5c-.393.455-.793.91-1.181,1.349-.31.352-.628.713-.938,1.07-.475.547-.957,1.106-1.422,1.646l0,.005-.031.036-.9,1.04q-.573.662-1.148,1.321l-.011.013-.153.175-.65.748-1.033,1.191-.081.094q-.679.784-1.359,1.565-.539.619-1.08,1.236l-.963,1.1c-.2.234-.421.486-.634.743-.069.084-.129.123-.187.123s-.118-.038-.189-.121c-.651-.758-1.318-1.524-1.963-2.265l-.016-.019-.035-.04-.861-.991-1.294-1.5-.893-1.036.2-.234c.178-.212.362-.431.549-.645q1-1.151,2.007-2.3l.084-.1.2-.232,1.234-1.414c1.455-1.668,2.959-3.4,4.167-4.784l.418-.479.029-.033c.835-.958,1.7-1.949,2.546-2.925.777-.9,1.562-1.811,2.334-2.712a5.231,5.231,0,0,1,3.176-1.74A7.661,7.661,0,0,1,1264-124a6.574,6.574,0,0,1,2.988.71,6.033,6.033,0,0,1,1.8,1.574c.508.59,1.028,1.189,1.486,1.717l.563.65.511.59.132.152,1.444,1.665,1,1.146,1.022,1.171.847.975.087.1,1.193,1.372q.5.581,1.011,1.159l.006.007q.5.575,1,1.152t.978,1.13l.029.033q.53.613,1.06,1.224.487.559.974,1.116l.023.026q.513.587,1.025,1.174.528.608,1.054,1.216l1.015,1.171q.407.469.816.937t.818.939l.924,1.067.054.062q.746.862,1.494,1.723.405.466.832.949c.4.454.81.922,1.209,1.386.263.306.534.615.8.914l.013.015c.7.8,1.426,1.625,2.076,2.485a8.8,8.8,0,0,1,1.767,4.47,8.636,8.636,0,0,1-1.321,5.663,19.957,19.957,0,0,1-1.587,2.061c-.126.149-.25.3-.372.444-.586.705-1.2,1.408-1.8,2.087l-.616.705c-.276.319-.554.637-.863.989-.236.27-.531.606-.809.927s-.576.666-.863,1l-.027.031c-.378.439-.769.893-1.156,1.337-.3.347-.611.7-.91,1.034l0,0c-.278.314-.563.636-.84.954-.441.508-.888,1.026-1.319,1.527l-.006.007-.057.066q-.5.575-.992,1.149c-.353.407-.713.82-1.062,1.22l-.033.037-.012.014q-.448.512-.894,1.026-.556.639-1.112,1.281l-.975,1.125-1,1.146-.078.089q-.472.541-.943,1.082-.715.821-1.429,1.644l-.178.205-.518.6-.364.417-.023.027c-.4.462-.82.939-1.228,1.411q-.57.656-1.139,1.313l-.948,1.093-.353.407-.016.019c-.413.477-.84.969-1.268,1.446l-.213.24a9.353,9.353,0,0,1-.961.99,5.439,5.439,0,0,1-2.777,1.153A6.95,6.95,0,0,1,1263.934-49.775Zm-16.113-15.33h0l-.16-.173,0,0c-.106-.115-.206-.223-.3-.336-.823-.944-1.7-1.955-2.568-2.952q-.462-.534-.922-1.069l-.053-.062c-.442-.513-.943-1.095-1.436-1.661-.339-.39-.7-.795-1.01-1.152l-.015-.017c-.341-.388-.694-.789-1.038-1.185-.423-.489-.851-.987-1.229-1.428-.48-.559-.977-1.138-1.47-1.705-.395-.454-.8-.911-1.188-1.353l-.029-.032c-.3-.343-.617-.7-.923-1.049-.49-.561-.995-1.146-1.44-1.661l-.084-.1q-.454-.526-.909-1.05-.425-.49-.853-.979l-.091-.1-.018-.02q-.512-.586-1.022-1.174l-.4-.454c-.359-.409-.73-.832-1.08-1.261a1.33,1.33,0,0,1,.149-1.8l1.108-1.277.111-.128c.645-.744,1.376-1.587,2.078-2.393q.762-.874,1.526-1.744.839-.958,1.676-1.916c.5-.572,1.042-1.2,1.66-1.928a1.314,1.314,0,0,0,.126-.187c.019-.032.04-.067.063-.1l.966,1.119c.664.769,1.416,1.641,2.147,2.483.642.739,1.332,1.53,2.03,2.309.126.14.124.22-.006.37-.943,1.075-1.9,2.174-2.818,3.237l-.034.039-.5.581a.8.8,0,0,0,.041,1.136c.405.466.819.939,1.22,1.4l.029.033c.482.549,1.028,1.172,1.546,1.771.5.582,1.015,1.177,1.508,1.752l.008.009.028.032c.485.565.986,1.15,1.482,1.722.436.5.883,1.008,1.315,1.5.371.421.79.895,1.2,1.359.44.5.888,1.026,1.284,1.486l.017.02c.363.422.738.858,1.109,1.285.8.92,1.457,1.667,2.066,2.351l.027.031c.339.381.352.4.016.792-.357.421-.728.84-1.087,1.246l-.006.007c-.209.237-.426.481-.637.724q-.542.624-1.082,1.25l-.046.053-.883,1.021c-.4.464-.807.924-1.184,1.352ZM1251-76.326c-.06,0-.119-.056-.22-.174-.37-.433-.757-.878-1.1-1.27l-.018-.021-.566-.651q-1.247-1.435-2.491-2.869l-.538-.618-.325-.374.317-.367.021-.024c.177-.2.351-.407.526-.608l.714-.819.02-.023c.631-.723,1.283-1.472,1.924-2.216a.716.716,0,0,0-.009-1.057l-1.24-1.427-.052-.06c-.55-.633-1.119-1.287-1.677-1.931-.408-.472-.822-.955-1.222-1.421l-.02-.024c-.472-.55-.956-1.115-1.435-1.668-.391-.45-.8-.914-1.166-1.324-.326-.368-.664-.748-1-1.129-.478-.55-.971-1.123-1.406-1.628-.419-.486-.894-1.038-1.352-1.565-.43-.5-.878-1.006-1.273-1.456l-.77-.879c-.04-.046-.079-.1-.117-.142s-.076-.094-.114-.139c-.378-.441-.378-.441,0-.873q1.963-2.245,3.918-4.487c.216-.248.431-.5.661-.764l.012-.014.283-.328.074.084.027.031c.322.366.627.712.932,1.061l1.758,2.027,1.061,1.225q.7.8,1.391,1.605.483.556.969,1.109l.016.018q.529.6,1.055,1.209c.359.412.716.826,1.062,1.227l.033.039q.476.551.953,1.1c.285.329.577.661.859.983l.042.048q.387.441.772.883.519.6,1.035,1.192l.016.018q.509.587,1.019,1.174.4.455.794.907c.283.323.6.688.917,1.05.482.555.97,1.12,1.442,1.667l.006.008.065.075.881,1.02.064.074c.26.3.53.612.8.914a1.372,1.372,0,0,1,.012,2.085c-.647.738-1.3,1.491-1.929,2.218q-.666.769-1.333,1.536c-.367.421-.741.846-1.1,1.26l-.052.059c-.4.457-.858.976-1.293,1.476-.7.807-1.468,1.694-2.41,2.791C1251.12-76.386,1251.057-76.326,1251-76.326Z" transform="translate(-1163.846 124.002)" fill="#522e8e"/>
    <path id="Union_1" data-name="Union 1" d="M1213.161-98.305q-1.742-1.9-1.741-6.285v-5.1q0-4.27,1.642-6.246a5.976,5.976,0,0,1,4.881-1.976,6.232,6.232,0,0,1,4.962,2.017q1.759,2.014,1.759,6.206v4.151h-8.657v1.9q0,3.2,2.056,3.2,2.014,0,2.016-2.65v-.2h4.427v.237a6.776,6.776,0,0,1-1.66,4.962,6.429,6.429,0,0,1-4.783,1.679A6.311,6.311,0,0,1,1213.161-98.305Zm3.359-14.685a5,5,0,0,0-.513,2.589v1.542h4.072V-110.4a4.987,4.987,0,0,0-.514-2.589,1.7,1.7,0,0,0-1.543-.811A1.671,1.671,0,0,0,1216.52-112.991ZM1231.3-96.722l-5.217-20.874h5.06l2.609,13.559,2.57-13.559h5.06l-5.218,20.874Zm-38.3,0V-124h7.549a7.662,7.662,0,0,1,5.516,1.976,7.713,7.713,0,0,1,2.075,5.85v11.623a7.527,7.527,0,0,1-2.174,5.832,8.032,8.032,0,0,1-5.654,2Zm4.822-4.349h2.609a2.4,2.4,0,0,0,2.115-1.067,5.188,5.188,0,0,0,.732-2.965v-10.238a5.848,5.848,0,0,0-.711-3.182,2.384,2.384,0,0,0-2.136-1.087h-2.609Z" transform="translate(-1193 211.241)" fill="#522e8e"/>
    <path id="Union_2" data-name="Union 2" d="M1241.464-98.087a6.082,6.082,0,0,1-1.778-4.644v-.237h4.427v.237a2.641,2.641,0,0,0,.593,1.838,2.128,2.128,0,0,0,1.66.652,2.032,2.032,0,0,0,1.562-.573,2.379,2.379,0,0,0,.534-1.68,2.228,2.228,0,0,0-.494-1.443,4.12,4.12,0,0,0-1.562-1.087l-2.371-1.028a7.226,7.226,0,0,1-3.32-2.412,6.2,6.2,0,0,1-.91-3.479,5.661,5.661,0,0,1,1.777-4.269,6.474,6.474,0,0,1,4.666-1.7,6.471,6.471,0,0,1,4.665,1.7,5.846,5.846,0,0,1,1.779,4.427v.4h-4.428v-.239a2.746,2.746,0,0,0-.553-1.858,1.9,1.9,0,0,0-1.5-.633,1.989,1.989,0,0,0-1.444.515,1.936,1.936,0,0,0-.535,1.463,2.324,2.324,0,0,0,.4,1.383,3.543,3.543,0,0,0,1.5,1.028l2.57,1.108a7.532,7.532,0,0,1,3.241,2.39,6.219,6.219,0,0,1,.988,3.658,5.88,5.88,0,0,1-1.8,4.447,6.716,6.716,0,0,1-4.843,1.719A6.739,6.739,0,0,1,1241.464-98.087Zm-11.76,1.246a5.578,5.578,0,0,1-1.64-1.345v1.464h-4.428V-124h4.585v8.065a3.941,3.941,0,0,1,1.443-1.463,4.073,4.073,0,0,1,2.075-.513,4.478,4.478,0,0,1,3.637,1.619q1.346,1.621,1.344,5.14v7.986q0,3.518-1.4,5.138a4.6,4.6,0,0,1-3.656,1.621A4.226,4.226,0,0,1,1229.7-96.842Zm-1.047-16.149a4.983,4.983,0,0,0-.515,2.59v6.483q0,3.4,2.016,3.4a1.634,1.634,0,0,0,1.483-.791,5.146,5.146,0,0,0,.494-2.609V-110.4a5.165,5.165,0,0,0-.494-2.59,1.625,1.625,0,0,0-1.483-.81A1.669,1.669,0,0,0,1228.657-112.991Zm-20.418,14.883a7.554,7.554,0,0,1-1.324-4.743,5.777,5.777,0,0,1,1.778-4.527,7.375,7.375,0,0,1,5.1-1.6h1.74v-2.649a2.506,2.506,0,0,0-.494-1.68,1.8,1.8,0,0,0-1.442-.572,1.8,1.8,0,0,0-1.385.553,2.126,2.126,0,0,0-.513,1.5v.317h-4.23v-.158a5.987,5.987,0,0,1,1.74-4.666,6.444,6.444,0,0,1,4.506-1.58,6.146,6.146,0,0,1,4.723,1.8,6.81,6.81,0,0,1,1.68,4.844v14.547h-4.269v-1.74a6.557,6.557,0,0,1-1.622,1.562,3.827,3.827,0,0,1-2.056.494A4.677,4.677,0,0,1,1208.239-98.107Zm3.992-7.037a2.647,2.647,0,0,0-.731,2.1,3.217,3.217,0,0,0,.513,1.976,1.775,1.775,0,0,0,1.5.673,1.8,1.8,0,0,0,1.444-.692,2.857,2.857,0,0,0,.572-1.878v-2.806h-1.186A3.146,3.146,0,0,0,1212.232-105.144ZM1193-96.724V-124h4.862v22.928h7.314v4.348Z" transform="translate(-1091.209 211.241)" fill="#522e8e"/>
  </g>
</svg>
