<svg xmlns="http://www.w3.org/2000/svg" width="17" height="17" viewBox="0 0 17 17">
  <path id="Icon_awesome-file-import" data-name="Icon awesome-file-import" d="M.5,9a.5.5,0,0,0-.5.5v1a.5.5,0,0,0,.5.5H4V9H.5ZM12.191,0,16,3.809A34.525,34.525,0,0,0,12.191,0ZM11,4.25V0H4.75A.748.748,0,0,0,4,.75V9H8V6.962a.5.5,0,0,1,.856-.353l2.988,3.016a.532.532,0,0,1,0,.75L8.853,13.388A.5.5,0,0,1,8,13.034V11H4v4.25a.748.748,0,0,0,.75.75h10.5a.748.748,0,0,0,.75-.75V5H11.75A.752.752,0,0,1,11,4.25Z" transform="translate(0.5 0.5)" fill="none" stroke="#522e8e" stroke-width="1"/>
</svg>
