<svg xmlns="http://www.w3.org/2000/svg" width="16" height="16" viewBox="0 0 16 16">
  <g id="Icon_ionic-ios-power" data-name="Icon ionic-ios-power" transform="translate(-4.5 -4.5)">
    <path id="Path_21" data-name="Path 21" d="M17.683,7.728a.767.767,0,0,0-.492-.176.752.752,0,0,0-.575.262.725.725,0,0,0-.179.545.742.742,0,0,0,.267.508,6.269,6.269,0,0,1,2.283,4.814,6.485,6.485,0,0,1-12.967,0A6.257,6.257,0,0,1,8.3,8.868a.737.737,0,0,0,.088-1.054.767.767,0,0,0-1.067-.086A7.732,7.732,0,0,0,4.5,13.677a7.93,7.93,0,0,0,8,7.84,7.93,7.93,0,0,0,8-7.84A7.751,7.751,0,0,0,17.683,7.728Z" transform="translate(0 -1.017)" fill="#9ac61e"/>
    <path id="Path_22" data-name="Path 22" d="M17.63,14.367A.868.868,0,0,0,18.5,13.5V5.367a.867.867,0,0,0-1.734,0V13.5A.868.868,0,0,0,17.63,14.367Z" transform="translate(-5.093)" fill="#9ac61e"/>
  </g>
</svg>
